<?xml version="1.0" encoding="UTF-8"?>
<svg width="181px" height="179px" viewBox="0 0 181 179" version="1.1" xmlns="http://www.w3.org/2000/svg" xmlns:xlink="http://www.w3.org/1999/xlink">
    <!-- Generator: Sketch 43.2 (39069) - http://www.bohemiancoding.com/sketch -->
    <title>app icon</title>
    <desc>Created with Sketch.</desc>
    <defs></defs>
    <g id="Page-1" stroke="none" stroke-width="1" fill="none" fill-rule="evenodd">
        <g id="Artboard">
            <g id="app-icon">
                <rect id="Rectangle" fill="#90B494" x="0" y="0" width="181" height="179"></rect>
                <path d="M90.998704,160 C51.2343741,160 19,128.659571 19,90.0014 C19,51.3404293 51.2343741,20 90.998704,20 C130.765626,20 163,51.3404293 163,90.0014 C163,128.659571 130.765626,160 90.998704,160 Z" id="Shape" fill="#4C4C4C" fill-rule="nonzero"></path>
                <path d="M119.413047,69.8091621 C120.406358,68.816052 120.964487,67.4684422 120.964487,66.0631906 C120.964487,64.6579391 120.406358,63.3103292 119.413047,62.3172192 C115.008641,57.6828989 108.875449,55.093103 102.485547,55.1694291 L96.6667187,55.1694291 C90.5866456,55.1391397 84.7941757,57.757787 80.7971875,62.3436924 C76.7063112,66.8591355 74.8269603,72.958042 75.6660391,78.9953959 L75.6660391,79.9219613 C76.1167814,82.2315791 76.2414268,84.5930874 76.0363281,86.9373849 L70.7464844,86.9373849 C67.8249843,86.9373849 65.4566406,89.3078846 65.4566406,92.2320442 C65.4566406,95.1562038 67.8249843,97.5267035 70.7464844,97.5267035 L73.9203906,97.5267035 C71.9631484,103.747928 68.6305469,106.89825 64.3722227,111.901703 L61.4892578,115.210866 L61.3041133,115.475599 L60.9602734,116.058011 L60.7222305,116.481584 L60.5106367,116.958103 C60.5106367,117.116943 60.5106367,117.275783 60.3519414,117.461096 C60.1932461,117.646409 60.3519414,117.778775 60.3519414,117.964088 C60.3422146,118.149274 60.3422146,118.334842 60.3519414,118.520028 L60.1667969,118.705341 C60.1667969,118.705341 60.1667969,118.705341 60.1667969,118.86418 C60.1570701,119.049366 60.1570701,119.234934 60.1667969,119.42012 L60.1667969,119.896639 C60.1667969,120.055479 60.1667969,120.240792 60.3254922,120.399632 C60.4841875,120.558471 60.3254922,120.717311 60.5106367,120.876151 L60.7486797,121.326197 L61.0131719,121.776243 L61.3305625,122.146869 L61.7008516,122.543969 L61.7008516,122.543969 L61.991793,122.755755 L62.362082,123.020488 L62.838168,123.285221 L63.2349062,123.470534 L63.8167891,123.655847 L64.1606289,123.655847 C64.5762993,123.825123 65.0118009,123.94077 65.4566406,124 L113.065234,124 C115.986734,124 118.355078,121.6295 118.355078,118.705341 C118.355078,115.781181 115.986734,113.410681 113.065234,113.410681 L76.5388633,113.410681 C84.4736289,101.735958 88.0442734,92.7615101 86.2721758,78.5982965 L86.2721758,77.6717311 C85.919539,74.6491896 86.8830892,71.6208875 88.9170977,69.359116 C90.7763468,66.9875193 93.6568872,65.6492595 96.6667187,65.7587477 L102.485547,65.7587477 C106.078428,65.5423304 109.567702,67.0097467 111.927918,69.7297422 C112.909555,70.7345579 114.250037,71.3075316 115.654035,71.3224285 C117.058032,71.3373254 118.410348,70.7929233 119.413047,69.8091621 Z" id="Shape" fill="#7DCCFC" fill-rule="nonzero"></path>
                <path d="M104.839527,86.9373849 L94.5507812,86.9373849 C93.0900312,86.9373849 91.9058594,88.1226348 91.9058594,89.5847145 L91.9058594,94.8793738 C91.9058594,96.3414536 93.0900312,97.5267035 94.5507812,97.5267035 L105.130469,97.5267035 C106.7041,97.5496613 108.206232,96.8701044 109.228761,95.6726558 C110.251291,94.4752071 110.688025,92.8842258 110.420312,91.3319521 C109.889981,88.694549 107.525327,86.8325119 104.839527,86.9373849 L104.839527,86.9373849 Z" id="Shape" fill="#7DCCFC" fill-rule="nonzero"></path>
            </g>
        </g>
    </g>
</svg>